<?xml version="1.0" encoding="UTF-8"?>
<svg width="84px" height="84px" viewBox="0 0 84 84" version="1.1" xmlns="http://www.w3.org/2000/svg" xmlns:xlink="http://www.w3.org/1999/xlink">
    <!-- Generator: Sketch 62 (91390) - https://sketch.com -->
    <title>icon_pc_zidian2</title>
    <desc>Created with Sketch.</desc>
    <g id="页面-1" stroke="none" stroke-width="1" fill="none" fill-rule="evenodd">
        <g id="01首页" transform="translate(-303.000000, -480.000000)">
            <g id="icon_pc_zidian2" transform="translate(303.000000, 480.000000)">
                <g id="编组-4备份" fill="#D6E6FF">
                    <rect id="矩形" x="0" y="0" width="84" height="84" rx="10"></rect>
                </g>
                <g id="zidian" transform="translate(15.000000, 15.000000)" fill-rule="nonzero">
                    <rect id="矩形" fill="#000000" opacity="0" x="0" y="0" width="54" height="54"></rect>
                    <rect id="矩形" fill="#96BFFF" x="9" y="41" width="32" height="8" rx="1"></rect>
                    <path d="M23.709375,3.4171875 L23.8172266,3.4221875 L43.4109375,3.42246094 C44.3854687,3.42246094 45.2267812,4.06099219 45.6904875,4.50199219 L45.7839844,4.59316406 C46.2216797,5.03085937 46.9546875,5.92207031 46.9546875,6.96621094 L46.9546875,39.7458984 C46.9546875,40.3154297 46.6277344,40.7794922 46.3060547,41.1539062 C46.0634766,41.4386719 45.7628906,41.7339844 45.4833984,41.9660156 L45.4476906,41.9958879 C45.2318155,42.2707118 44.9119482,42.459926 44.5472134,42.5044059 C44.4200283,42.5407178 44.2836344,42.5619141 44.1386719,42.5619141 L43.7268798,42.5611997 C43.0221398,42.6932494 42.1822266,43.1983128 42.1822266,45.1300781 C42.1822266,46.2375 42.5302734,46.9916016 43.2421875,47.4398437 C43.7080078,47.7298828 44.2067871,47.822168 44.4486084,47.8509766 L44.6132812,47.8511719 C44.9874422,47.8511719 45.326064,48.0025783 45.571248,48.2475008 C45.8523876,48.5225662 46.0126276,48.9154565 45.9791016,49.3330078 C45.9456811,49.6857794 45.7292214,50.1562191 45.2689598,50.4036881 L45.0968721,50.480179 L45.0968721,50.480179 L45.0020227,50.5120434 L45.0020227,50.5120434 L44.9336882,50.5301858 L44.9336882,50.5301858 L44.8565999,50.5460595 L44.8565999,50.5460595 L44.7481356,50.5608846 L44.7481356,50.5608846 L44.6539364,50.5694875 L44.6539364,50.5694875 L44.4708984,50.5722656 L44.3793572,50.5670407 L44.3793572,50.5670407 L12.4927734,50.5669922 C9.50800781,50.5669922 7.08222656,48.1412109 7.08222656,45.1564453 L7.08222656,43.9541016 L7.08722656,43.8451875 L7.0875,8.82773437 C7.0875,5.84296875 9.51328125,3.4171875 12.4980469,3.4171875 L23.709375,3.4171875 Z M39.9469929,42.5613623 L11.1970625,42.5626047 C10.4739844,42.5722734 9.871875,42.7173047 9.79804687,44.8927734 L9.79222656,44.9531875 L9.79277344,45.1564453 C9.79277344,46.6435547 11.0003906,47.8511719 12.4875,47.8511719 L40.0680843,47.8519218 C39.711471,47.1514617 39.4716797,46.2601465 39.4716797,45.1300781 C39.4716797,44.1580128 39.6364918,43.2948989 39.9469929,42.5613623 Z M13.6422266,6.1271875 L12.4980469,6.12773437 C11.0109375,6.12773437 9.80332031,7.33535156 9.80332031,8.82246094 L9.80262279,40.0687476 C10.2658954,39.9170776 10.7851517,39.8408203 11.3589844,39.8408203 L13.6422266,39.8401875 L13.6422266,6.1271875 Z M23.6002266,6.1271875 L16.3522266,6.1271875 L16.3522266,39.8401875 L43.6953029,39.8408203 L43.800934,39.8299912 L43.800934,39.8299912 L43.790625,39.8408203 C43.959375,39.6984375 44.128125,39.5191406 44.2441406,39.3873047 L44.2441406,7.01894531 C44.1492187,6.75 43.6271484,6.22792969 43.3582031,6.13300781 L23.709375,6.13300781 L23.6002266,6.1271875 Z M10.0822266,5.4171875 L45.0822266,5.4171875 C45.6345113,5.4171875 46.0822266,5.86490275 46.0822266,6.4171875 L46.0822266,40.4171875 C46.0822266,40.9694722 45.6345113,41.4171875 45.0822266,41.4171875 L10.0822266,41.4171875 C9.52994181,41.4171875 9.08222656,40.9694722 9.08222656,40.4171875 L9.08222656,6.4171875 C9.08222656,5.86490275 9.52994181,5.4171875 10.0822266,5.4171875 Z" id="形状" fill="#1973FF"></path>
                    <polygon id="路径" fill="#96BFFF" points="26.0560547 18.6820313 26.0560547 6.13300781 36.7453125 6.12773437 36.7453125 18.6029297 31.5404297 15.8255859"></polygon>
                </g>
            </g>
        </g>
    </g>
</svg>