<?xml version="1.0" encoding="UTF-8"?>
<svg width="24px" height="24px" viewBox="0 0 24 24" version="1.1" xmlns="http://www.w3.org/2000/svg" xmlns:xlink="http://www.w3.org/1999/xlink">
    <!-- Generator: Sketch 62 (91390) - https://sketch.com -->
    <title>字典</title>
    <desc>Created with Sketch.</desc>
    <g id="字典" stroke="none" stroke-width="1" fill="none" fill-rule="evenodd">
        <g id="字典管理" fill-rule="nonzero">
            <rect id="矩形" fill="#000000" opacity="0" x="0" y="0" width="24" height="24"></rect>
            <path d="M5.55234375,22.4742187 C4.22578125,22.4742187 3.14765625,21.3960937 3.14765625,20.0695312 L3.14765625,19.5351562 L3.14965625,19.50675 L3.15,3.9234375 C3.15,2.596875 4.228125,1.51875 5.5546875,1.51875 L10.5375,1.51875 L10.5646562,1.52075 L19.29375,1.52109375 C19.7578125,1.52109375 20.1539062,1.846875 20.3484375,2.04140625 C20.5429687,2.2359375 20.86875,2.63203125 20.86875,3.09609375 L20.86875,17.6648437 C20.86875,17.9179687 20.7234375,18.1242187 20.5804687,18.290625 C20.4726562,18.4171875 20.3390625,18.5484375 20.2148437,18.6515625 L20.1975352,18.6666629 C20.1011158,18.7884456 19.9585944,18.8720368 19.7962609,18.8911467 C19.7410806,18.9071641 19.6810022,18.9164062 19.6171875,18.9164062 L19.433829,18.9161525 C19.1206811,18.9749399 18.7476562,19.1995605 18.7476562,20.0578125 C18.7476562,20.55 18.9023437,20.8851562 19.21875,21.084375 C19.4269991,21.2140395 19.6500694,21.2547764 19.7568218,21.2673237 L19.828125,21.2671875 C20.0073683,21.2671875 20.1682607,21.3453675 20.2785776,21.4695077 C20.2907613,21.4823471 20.3020546,21.4959069 20.3127436,21.5099326 C20.3143672,21.5137949 20.316757,21.5170797 20.3191142,21.5203894 C20.4030729,21.6332396 20.4471875,21.7759375 20.4351562,21.9257812 C20.4201411,22.0842742 20.3219957,22.2962081 20.1128234,22.4051931 C20.0970485,22.4124275 20.0811843,22.4199943 20.0649539,22.4268677 C20.0525047,22.432617 20.0390682,22.437634 20.0252469,22.4422372 C19.9932484,22.45296 19.9602292,22.4612259 19.9262571,22.4666512 C19.8996721,22.4710679 19.8718511,22.4740934 19.8428401,22.4755544 C19.8379321,22.4741848 19.8342044,22.4742187 19.8304687,22.4742187 C19.8212602,22.4763991 19.8118621,22.4765625 19.8023437,22.4765625 L19.7648437,22.4765625 L19.7182129,22.4738268 L19.7182129,22.4738268 L5.55234375,22.4742187 Z M17.7543716,18.9158007 L5.04609375,18.9164062 C4.69453125,18.9164062 4.38984375,18.9164062 4.3546875,19.9523437 L4.35165625,19.97775 L4.35234375,20.0695312 C4.35234375,20.7304687 4.8890625,21.2671875 5.55,21.2671875 L17.8082238,21.2678867 C17.6496262,20.9565156 17.5429687,20.5602619 17.5429687,20.0578125 C17.5429687,19.6256243 17.6162726,19.2418946 17.7543716,18.9158007 Z M6.06265625,2.72275 L5.5546875,2.7234375 C4.89375,2.7234375 4.35703125,3.26015625 4.35703125,3.92109375 L4.35641362,17.808433 C4.5623903,17.7409571 4.79327376,17.7070312 5.0484375,17.7070312 L6.06265625,17.70675 L6.06265625,2.72275 Z M10.5006562,2.72275 L7.26765625,2.72275 L7.26765625,17.70675 L19.4221246,17.706739 C19.4366157,17.7051556 19.4511769,17.7036876 19.4658077,17.7023357 C19.5375,17.64375 19.6125,17.5640625 19.6640625,17.5054687 L19.6640625,3.11953125 C19.621875,3 19.3898437,2.76796875 19.2703125,2.72578125 L10.5375,2.72578125 L10.5006562,2.72275 Z" id="形状结合" fill="#FFFFFF"></path>
            <polygon id="路径" fill="#96BFFF" points="11.5804687 8.303125 11.5804687 2.72578125 16.33125 2.7234375 16.33125 8.26796875 14.0179687 7.03359375"></polygon>
        </g>
    </g>
</svg>